<svg width="16" height="16" viewBox="0 0 16 16" fill="none" xmlns="http://www.w3.org/2000/svg">
  <g id="fuel">
    <path id="fuel" fill-rule="evenodd" clip-rule="evenodd" d="M5.83268 1.33337H6.49935C8.38497 1.33337 9.32778 1.33337 9.91356 1.91916C10.4993 2.50495 10.4993 3.44776 10.4993 5.33337V10.8334H11.547C12.3491 10.8334 12.9993 11.4836 12.9993 12.2858V12.3334C12.9993 12.6095 13.2232 12.8334 13.4993 12.8334C13.7755 12.8334 13.9993 12.6095 13.9993 12.3334V9.16671L13.1831 8.89463C12.7748 8.75852 12.4993 8.37638 12.4993 7.94595V6.33337C12.4993 5.78109 12.9471 5.33337 13.4993 5.33337H13.9993V5.08169C13.9993 4.95833 13.9992 4.91593 13.997 4.87719C13.9747 4.4808 13.7962 4.1094 13.5006 3.8444C13.4717 3.8185 13.4387 3.79187 13.3424 3.7148L12.5203 3.05716C12.3047 2.88466 12.2697 2.57001 12.4422 2.35438C12.6148 2.13875 12.9294 2.10379 13.145 2.27629L13.9779 2.94256C14.0594 3.0078 14.1157 3.05281 14.1681 3.09979C14.6608 3.54147 14.9583 4.16046 14.9954 4.82111C14.9994 4.89139 14.9994 4.96345 14.9993 5.06789V12.3334C14.9993 13.1618 14.3278 13.8334 13.4993 13.8334C12.6709 13.8334 11.9993 13.1618 11.9993 12.3334V12.2858C11.9993 12.0359 11.7968 11.8334 11.547 11.8334H10.4993V14.1667H11.2483C11.5244 14.1667 11.7483 14.3906 11.7483 14.6667C11.7483 14.9428 11.5244 15.1667 11.2483 15.1667H1.16602C0.889873 15.1667 0.666016 14.9428 0.666016 14.6667C0.666016 14.3906 0.889873 14.1667 1.16602 14.1667H1.83268V5.33337C1.83268 3.44776 1.83268 2.50495 2.41847 1.91916C3.00426 1.33337 3.94706 1.33337 5.83268 1.33337ZM4.66602 10.8334C4.38987 10.8334 4.16602 11.0572 4.16602 11.3334C4.16602 11.6095 4.38987 11.8334 4.66602 11.8334H7.99935C8.27549 11.8334 8.49935 11.6095 8.49935 11.3334C8.49935 11.0572 8.27549 10.8334 7.99935 10.8334H4.66602ZM7.33268 4.00004H5.33268C4.70414 4.00004 4.38987 4.00004 4.19461 4.1953C3.99935 4.39056 3.99935 4.70483 3.99935 5.33337C3.99935 5.96191 3.99935 6.27618 4.19461 6.47144C4.38987 6.66671 4.70414 6.66671 5.33268 6.66671H7.33268C7.96122 6.66671 8.27549 6.66671 8.47075 6.47144C8.66602 6.27618 8.66602 5.96191 8.66602 5.33337C8.66602 4.70483 8.66602 4.39056 8.47075 4.1953C8.27549 4.00004 7.96122 4.00004 7.33268 4.00004Z" fill="white" />
  </g>
</svg>
