<svg width="13" height="16" viewBox="0 0 13 16" fill="none" xmlns="http://www.w3.org/2000/svg">
<path d="M2.83333 4.5C2.83333 5.42826 3.21964 6.3185 3.90727 6.97487C4.59491 7.63125 5.52754 8 6.5 8C7.47246 8 8.40509 7.63125 9.09272 6.97487C9.78036 6.3185 10.1667 5.42826 10.1667 4.5C10.1667 3.57174 9.78036 2.6815 9.09272 2.02513C8.40509 1.36875 7.47246 1 6.5 1C5.52754 1 4.59491 1.36875 3.90727 2.02513C3.21964 2.6815 2.83333 3.57174 2.83333 4.5Z" fill="white"/>
<path d="M1 15V13.25C1 12.3217 1.38631 11.4315 2.07394 10.7751C2.76157 10.1187 3.69421 9.75 4.66667 9.75H8.33333C9.30579 9.75 10.2384 10.1187 10.9261 10.7751C11.6137 11.4315 12 12.3217 12 13.25V15" fill="white"/>
<path d="M2.83333 4.5C2.83333 5.42826 3.21964 6.3185 3.90728 6.97487C4.59491 7.63125 5.52754 8 6.5 8C7.47246 8 8.40509 7.63125 9.09273 6.97487C9.78036 6.3185 10.1667 5.42826 10.1667 4.5C10.1667 3.57174 9.78036 2.6815 9.09273 2.02513C8.40509 1.36875 7.47246 1 6.5 1C5.52754 1 4.59491 1.36875 3.90728 2.02513C3.21964 2.6815 2.83333 3.57174 2.83333 4.5ZM1 15V13.25C1 12.3217 1.38631 11.4315 2.07394 10.7751C2.76158 10.1187 3.69421 9.75 4.66667 9.75H8.33333C9.30579 9.75 10.2384 10.1187 10.9261 10.7751C11.6137 11.4315 12 12.3217 12 13.25V15H1Z"  stroke-linecap="round" stroke-linejoin="round"/>
</svg>
