<svg width="145" height="35" viewBox="0 0 145 35" fill="none" xmlns="http://www.w3.org/2000/svg">
<g filter="url(#filter0_d_516_6778)">
<path d="M12.294 28L6.54688 7.63636H10.5142L14.1832 22.6009H14.3722L18.2898 7.63636H21.8991L25.8267 22.6108H26.0057L29.6747 7.63636H33.642L27.8949 28H24.2557L20.179 13.7116H20.0199L15.9332 28H12.294ZM41.1442 28.2983C39.6527 28.2983 38.3601 27.9702 37.2663 27.3139C36.1726 26.6577 35.3241 25.7396 34.7209 24.5597C34.1243 23.3797 33.826 22.0009 33.826 20.4233C33.826 18.8456 34.1243 17.4635 34.7209 16.277C35.3241 15.0904 36.1726 14.169 37.2663 13.5128C38.3601 12.8565 39.6527 12.5284 41.1442 12.5284C42.6357 12.5284 43.9283 12.8565 45.022 13.5128C46.1158 14.169 46.9609 15.0904 47.5575 16.277C48.1607 17.4635 48.4624 18.8456 48.4624 20.4233C48.4624 22.0009 48.1607 23.3797 47.5575 24.5597C46.9609 25.7396 46.1158 26.6577 45.022 27.3139C43.9283 27.9702 42.6357 28.2983 41.1442 28.2983ZM41.1641 25.4148C41.9728 25.4148 42.6489 25.1927 43.1925 24.7486C43.736 24.2978 44.1404 23.6946 44.4055 22.9389C44.6773 22.1832 44.8132 21.3414 44.8132 20.4134C44.8132 19.4787 44.6773 18.6335 44.4055 17.8778C44.1404 17.1155 43.736 16.509 43.1925 16.0582C42.6489 15.6075 41.9728 15.3821 41.1641 15.3821C40.3355 15.3821 39.6461 15.6075 39.0959 16.0582C38.5523 16.509 38.1446 17.1155 37.8729 17.8778C37.6077 18.6335 37.4751 19.4787 37.4751 20.4134C37.4751 21.3414 37.6077 22.1832 37.8729 22.9389C38.1446 23.6946 38.5523 24.2978 39.0959 24.7486C39.6461 25.1927 40.3355 25.4148 41.1641 25.4148ZM51.5174 28V12.7273H54.9577V15.3224H55.1367C55.4549 14.4474 55.9819 13.7647 56.7177 13.2741C57.4535 12.777 58.3318 12.5284 59.3526 12.5284C60.3867 12.5284 61.2584 12.7803 61.9677 13.2841C62.6836 13.7812 63.1874 14.4607 63.479 15.3224H63.6381C63.9762 14.474 64.5463 13.7978 65.3484 13.294C66.1571 12.7836 67.1149 12.5284 68.2219 12.5284C69.6273 12.5284 70.774 12.9725 71.6623 13.8608C72.5505 14.7491 72.9947 16.045 72.9947 17.7486V28H69.3853V18.3054C69.3853 17.3575 69.1334 16.6648 68.6296 16.2273C68.1258 15.7831 67.5094 15.5611 66.7802 15.5611C65.9118 15.5611 65.2324 15.8329 64.7418 16.3764C64.2579 16.9134 64.016 17.6127 64.016 18.4744V28H60.4862V18.1562C60.4862 17.3674 60.2475 16.7377 59.7702 16.267C59.2996 15.7964 58.6831 15.5611 57.9208 15.5611C57.4038 15.5611 56.9331 15.6937 56.5089 15.9588C56.0846 16.2173 55.7466 16.5852 55.4947 17.0625C55.2428 17.5331 55.1168 18.0833 55.1168 18.7131V28H51.5174ZM83.4077 28.2983C81.8764 28.2983 80.554 27.9801 79.4403 27.3438C78.3333 26.7008 77.4815 25.7926 76.8849 24.6193C76.2884 23.4394 75.9901 22.0507 75.9901 20.4531C75.9901 18.8821 76.2884 17.5033 76.8849 16.3168C77.4882 15.1236 78.33 14.1955 79.4105 13.5327C80.491 12.8632 81.7604 12.5284 83.2188 12.5284C84.16 12.5284 85.0483 12.6809 85.8835 12.9858C86.7254 13.2841 87.4678 13.7481 88.1108 14.3778C88.7604 15.0076 89.2708 15.8097 89.642 16.7841C90.0133 17.7519 90.1989 18.9053 90.1989 20.2443V21.348H77.6804V18.9219H86.7486C86.742 18.2325 86.5928 17.6193 86.3011 17.0824C86.0095 16.5388 85.6018 16.1113 85.0781 15.7997C84.5611 15.4882 83.9579 15.3324 83.2685 15.3324C82.5327 15.3324 81.8864 15.5114 81.3295 15.8693C80.7727 16.2206 80.3385 16.6847 80.027 17.2614C79.7221 17.8314 79.5663 18.4579 79.5597 19.1406V21.2585C79.5597 22.1468 79.7221 22.9091 80.0469 23.5455C80.3717 24.1752 80.8258 24.6591 81.4091 24.9972C81.9924 25.3286 82.6752 25.4943 83.4574 25.4943C83.9811 25.4943 84.455 25.4214 84.8793 25.2756C85.3035 25.1231 85.6714 24.901 85.983 24.6094C86.2945 24.3177 86.5298 23.9564 86.6889 23.5256L90.0497 23.9034C89.8376 24.7917 89.4332 25.5672 88.8366 26.2301C88.2467 26.8864 87.491 27.3968 86.5696 27.7614C85.6482 28.1193 84.5942 28.2983 83.4077 28.2983ZM95.859 12.7273L98.9414 18.3651L102.074 12.7273H105.882L101.278 20.3636L105.961 28H102.173L98.9414 22.5014L95.7397 28H91.9215L96.5749 20.3636L92.0408 12.7273H95.859ZM110.883 28.2188C110.28 28.2188 109.763 28.0066 109.332 27.5824C108.901 27.1581 108.689 26.6411 108.696 26.0312C108.689 25.4347 108.901 24.9242 109.332 24.5C109.763 24.0758 110.28 23.8636 110.883 23.8636C111.467 23.8636 111.974 24.0758 112.404 24.5C112.842 24.9242 113.064 25.4347 113.071 26.0312C113.064 26.4356 112.958 26.8035 112.752 27.1349C112.554 27.4664 112.288 27.7315 111.957 27.9304C111.632 28.1226 111.274 28.2188 110.883 28.2188ZM116.787 28V12.7273H120.386V28H116.787ZM118.597 10.5597C118.027 10.5597 117.536 10.3707 117.125 9.9929C116.714 9.60843 116.509 9.14773 116.509 8.61079C116.509 8.06723 116.714 7.60653 117.125 7.22869C117.536 6.84422 118.027 6.65199 118.597 6.65199C119.173 6.65199 119.664 6.84422 120.068 7.22869C120.479 7.60653 120.685 8.06723 120.685 8.61079C120.685 9.14773 120.479 9.60843 120.068 9.9929C119.664 10.3707 119.173 10.5597 118.597 10.5597ZM130.75 28.2983C129.258 28.2983 127.966 27.9702 126.872 27.3139C125.778 26.6577 124.93 25.7396 124.326 24.5597C123.73 23.3797 123.431 22.0009 123.431 20.4233C123.431 18.8456 123.73 17.4635 124.326 16.277C124.93 15.0904 125.778 14.169 126.872 13.5128C127.966 12.8565 129.258 12.5284 130.75 12.5284C132.241 12.5284 133.534 12.8565 134.627 13.5128C135.721 14.169 136.566 15.0904 137.163 16.277C137.766 17.4635 138.068 18.8456 138.068 20.4233C138.068 22.0009 137.766 23.3797 137.163 24.5597C136.566 25.7396 135.721 26.6577 134.627 27.3139C133.534 27.9702 132.241 28.2983 130.75 28.2983ZM130.77 25.4148C131.578 25.4148 132.254 25.1927 132.798 24.7486C133.342 24.2978 133.746 23.6946 134.011 22.9389C134.283 22.1832 134.419 21.3414 134.419 20.4134C134.419 19.4787 134.283 18.6335 134.011 17.8778C133.746 17.1155 133.342 16.509 132.798 16.0582C132.254 15.6075 131.578 15.3821 130.77 15.3821C129.941 15.3821 129.252 15.6075 128.701 16.0582C128.158 16.509 127.75 17.1155 127.478 17.8778C127.213 18.6335 127.081 19.4787 127.081 20.4134C127.081 21.3414 127.213 22.1832 127.478 22.9389C127.75 23.6946 128.158 24.2978 128.701 24.7486C129.252 25.1927 129.941 25.4148 130.77 25.4148Z" fill="white"/>
</g>
<defs>
<filter id="filter0_d_516_6778" x="0.546875" y="0.651978" width="143.521" height="33.6464" filterUnits="userSpaceOnUse" color-interpolation-filters="sRGB">
<feFlood flood-opacity="0" result="BackgroundImageFix"/>
<feColorMatrix in="SourceAlpha" type="matrix" values="0 0 0 0 0 0 0 0 0 0 0 0 0 0 0 0 0 0 127 0" result="hardAlpha"/>
<feOffset/>
<feGaussianBlur stdDeviation="3"/>
<feComposite in2="hardAlpha" operator="out"/>
<feColorMatrix type="matrix" values="0 0 0 0 0.690196 0 0 0 0 0.529412 0 0 0 0 0.952941 0 0 0 1 0"/>
<feBlend mode="normal" in2="BackgroundImageFix" result="effect1_dropShadow_516_6778"/>
<feBlend mode="normal" in="SourceGraphic" in2="effect1_dropShadow_516_6778" result="shape"/>
</filter>
</defs>
</svg>
