<svg width="22" height="22" viewBox="0 0 22 22" fill="none" xmlns="http://www.w3.org/2000/svg">
<path d="M20.3356 18.2194L22 19.8265V19.8797H13.5575V19.8265L15.2522 18.2194C15.433 18.0706 15.5196 17.8344 15.478 17.6024V7.32942C15.478 6.89527 15.478 6.30849 15.5537 5.80661L9.85875 20.0853H9.79103L3.894 6.94855L3.64547 6.37724V14.9909C3.57481 15.5671 3.6716 16.1513 3.92425 16.6739L6.29681 19.8268V19.8801H0V19.8268L2.37256 16.6664C2.6235 16.1466 2.71631 15.565 2.651 14.9909V5.47111C2.6895 5.00224 2.54959 4.53611 2.25912 4.16899L0.579906 1.96795V1.91467H6.60516L11.6514 13.0412L16.0951 1.91467H21.9924V1.96795L20.3356 3.83383C20.1369 3.98061 20.0379 4.22845 20.0795 4.4732V17.6024C20.0578 17.719 20.0704 17.8394 20.1159 17.9489C20.1613 18.0585 20.2377 18.1525 20.3356 18.2194Z" fill="white"/>
</svg>
