<svg width="16" height="16" viewBox="0 0 16 16" fill="none" xmlns="http://www.w3.org/2000/svg">
<g id="Linear / Essentional, UI / Bolt">
<path id="Vector" d="M3.77903 6.60956L5.82046 3.84753C7.14003 2.06216 7.79982 1.16948 8.4154 1.35812C9.03097 1.54676 9.03097 2.64164 9.03097 4.83139V5.03786C9.03097 5.82766 9.03097 6.22255 9.28333 6.47026L9.29668 6.48309C9.55449 6.72556 9.96549 6.72555 10.7875 6.72555C12.2668 6.72555 13.0064 6.72556 13.2564 7.17418C13.2605 7.18161 13.2645 7.1891 13.2684 7.19664C13.5044 7.65222 13.0761 8.23162 12.2196 9.39044L10.1782 12.1524C8.85862 13.9378 8.19882 14.8305 7.58324 14.6418C6.96767 14.4532 6.96768 13.3583 6.96772 11.1685L6.96772 10.9621C6.96773 10.1723 6.96774 9.77744 6.71538 9.52973L6.70202 9.5169C6.44422 9.27443 6.03321 9.27443 5.21118 9.27443C3.73194 9.27443 2.99231 9.27443 2.74235 8.8258C2.73821 8.81837 2.73418 8.81089 2.73028 8.80334C2.49431 8.34777 2.92255 7.76837 3.77903 6.60956Z" stroke="url(#paint0_linear_143_3039)" stroke-width="1.5"/>
</g>
<defs>
<linearGradient id="paint0_linear_143_3039" x1="6.18602" y1="-2.1961" x2="14.9485" y2="2.25981" gradientUnits="userSpaceOnUse">
<stop stop-color="#2EA5FB"/>
<stop offset="1" stop-color="#4340E1"/>
</linearGradient>
</defs>
</svg>
