<svg xmlns="http://www.w3.org/2000/svg" width="20" height="20" viewBox="0 0 20 20" fill="none">
  <g opacity="0.64">
    <path d="M6.66675 1.66669H3.33341C2.89139 1.66669 2.46746 1.84228 2.1549 2.15484C1.84234 2.4674 1.66675 2.89133 1.66675 3.33335V6.66669C1.66675 7.10871 1.84234 7.53264 2.1549 7.8452C2.46746 8.15776 2.89139 8.33335 3.33341 8.33335H6.66675C7.10878 8.33335 7.5327 8.15776 7.84526 7.8452C8.15782 7.53264 8.33342 7.10871 8.33342 6.66669V3.33335C8.33342 2.89133 8.15782 2.4674 7.84526 2.15484C7.5327 1.84228 7.10878 1.66669 6.66675 1.66669Z" fill="white"/>
    <path d="M16.6667 11.6667H13.3334C12.8914 11.6667 12.4675 11.8423 12.1549 12.1548C11.8423 12.4674 11.6667 12.8913 11.6667 13.3334V16.6667C11.6667 17.1087 11.8423 17.5326 12.1549 17.8452C12.4675 18.1578 12.8914 18.3334 13.3334 18.3334H16.6667C17.1088 18.3334 17.5327 18.1578 17.8453 17.8452C18.1578 17.5326 18.3334 17.1087 18.3334 16.6667V13.3334C18.3334 12.8913 18.1578 12.4674 17.8453 12.1548C17.5327 11.8423 17.1088 11.6667 16.6667 11.6667Z" fill="white"/>
    <path d="M13.9226 1.91085C14.066 2.05435 14.1522 2.24526 14.165 2.44779C14.1777 2.65031 14.1161 2.85052 13.9917 3.01085L13.9226 3.08919L12.8451 4.16669H15.8334C16.4711 4.16665 17.0847 4.41029 17.5486 4.84776C18.0126 5.28522 18.2918 5.88344 18.3292 6.52002L18.3334 6.66669V9.16669C18.3332 9.37909 18.2518 9.58338 18.106 9.73783C17.9602 9.89227 17.7609 9.98522 17.5489 9.99766C17.3369 10.0101 17.1281 9.94113 16.9652 9.8048C16.8023 9.66848 16.6977 9.4751 16.6726 9.26419L16.6667 9.16669V6.66669C16.6667 6.46258 16.5918 6.26557 16.4561 6.11304C16.3205 5.96052 16.1336 5.86307 15.9309 5.83919L15.8334 5.83335H12.8459L13.9226 6.91085C14.072 7.06082 14.1588 7.26205 14.1653 7.47367C14.1717 7.6853 14.0974 7.89145 13.9574 8.05025C13.8173 8.20906 13.6221 8.30861 13.4113 8.32869C13.2006 8.34876 12.9901 8.28786 12.8226 8.15835L12.7442 8.08919L10.2442 5.58919C10.1491 5.49622 10.0781 5.38143 10.0375 5.25479C9.99679 5.12815 9.98767 4.99349 10.0109 4.86252L10.0409 4.74085L10.0742 4.65419C10.1226 4.54919 10.1909 4.45419 10.2784 4.37585L12.7442 1.91085C12.9005 1.75463 13.1124 1.66687 13.3334 1.66687C13.5544 1.66687 13.7663 1.75463 13.9226 1.91085Z" fill="white"/>
    <path d="M2.50008 10C2.70419 10 2.9012 10.075 3.05372 10.2106C3.20625 10.3462 3.3037 10.5331 3.32758 10.7359L3.33341 10.8334V13.3334C3.33344 13.5375 3.40838 13.7345 3.54401 13.887C3.67964 14.0395 3.86654 14.137 4.06925 14.1609L4.16675 14.1667H7.15425L6.07758 13.0892C5.9341 12.9457 5.84791 12.7548 5.83517 12.5523C5.82244 12.3497 5.88404 12.1495 6.00841 11.9892L6.07758 11.9109C6.22108 11.7674 6.41199 11.6812 6.61451 11.6684C6.81704 11.6557 7.01724 11.7173 7.17758 11.8417L7.25591 11.9109L9.75591 14.4109C9.85104 14.5038 9.92203 14.6186 9.96269 14.7453C10.0034 14.8719 10.0125 15.0066 9.98925 15.1375L9.95925 15.2592L9.92592 15.3459C9.87761 15.4516 9.80812 15.5464 9.72175 15.6242L7.25591 18.0892C7.10595 18.2386 6.90472 18.3254 6.6931 18.3319C6.48147 18.3383 6.27532 18.264 6.11652 18.124C5.95771 17.984 5.85816 17.7887 5.83808 17.578C5.818 17.3672 5.87891 17.1567 6.00841 16.9892L6.07758 16.9109L7.15341 15.8334H4.16675C3.52907 15.8334 2.91549 15.5898 2.45153 15.1523C1.98758 14.7148 1.70833 14.1166 1.67091 13.48L1.66675 13.3334V10.8334C1.66675 10.6123 1.75455 10.4004 1.91083 10.2441C2.06711 10.0878 2.27907 10 2.50008 10Z" fill="white"/>
    <path d="M6.66675 1.66669H3.33341C2.89139 1.66669 2.46746 1.84228 2.1549 2.15484C1.84234 2.4674 1.66675 2.89133 1.66675 3.33335V6.66669C1.66675 7.10871 1.84234 7.53264 2.1549 7.8452C2.46746 8.15776 2.89139 8.33335 3.33341 8.33335H6.66675C7.10878 8.33335 7.5327 8.15776 7.84526 7.8452C8.15782 7.53264 8.33342 7.10871 8.33342 6.66669V3.33335C8.33342 2.89133 8.15782 2.4674 7.84526 2.15484C7.5327 1.84228 7.10878 1.66669 6.66675 1.66669Z" stroke="black"/>
    <path d="M16.6667 11.6667H13.3334C12.8914 11.6667 12.4675 11.8423 12.1549 12.1548C11.8423 12.4674 11.6667 12.8913 11.6667 13.3334V16.6667C11.6667 17.1087 11.8423 17.5326 12.1549 17.8452C12.4675 18.1578 12.8914 18.3334 13.3334 18.3334H16.6667C17.1088 18.3334 17.5327 18.1578 17.8453 17.8452C18.1578 17.5326 18.3334 17.1087 18.3334 16.6667V13.3334C18.3334 12.8913 18.1578 12.4674 17.8453 12.1548C17.5327 11.8423 17.1088 11.6667 16.6667 11.6667Z" stroke="black"/>
    <path d="M13.9226 1.91085C14.066 2.05435 14.1522 2.24526 14.165 2.44779C14.1777 2.65031 14.1161 2.85052 13.9917 3.01085L13.9226 3.08919L12.8451 4.16669H15.8334C16.4711 4.16665 17.0847 4.41029 17.5486 4.84776C18.0126 5.28522 18.2918 5.88344 18.3292 6.52002L18.3334 6.66669V9.16669C18.3332 9.37909 18.2518 9.58338 18.106 9.73783C17.9602 9.89227 17.7609 9.98522 17.5489 9.99766C17.3369 10.0101 17.1281 9.94113 16.9652 9.8048C16.8023 9.66848 16.6977 9.4751 16.6726 9.26419L16.6667 9.16669V6.66669C16.6667 6.46258 16.5918 6.26557 16.4561 6.11304C16.3205 5.96052 16.1336 5.86307 15.9309 5.83919L15.8334 5.83335H12.8459L13.9226 6.91085C14.072 7.06082 14.1588 7.26205 14.1653 7.47367C14.1717 7.6853 14.0974 7.89145 13.9574 8.05025C13.8173 8.20906 13.6221 8.30861 13.4113 8.32869C13.2006 8.34876 12.9901 8.28786 12.8226 8.15835L12.7442 8.08919L10.2442 5.58919C10.1491 5.49622 10.0781 5.38143 10.0375 5.25479C9.99679 5.12815 9.98767 4.99349 10.0109 4.86252L10.0409 4.74085L10.0742 4.65419C10.1226 4.54919 10.1909 4.45419 10.2784 4.37585L12.7442 1.91085C12.9005 1.75463 13.1124 1.66687 13.3334 1.66687C13.5544 1.66687 13.7663 1.75463 13.9226 1.91085Z" stroke="black"/>
    <path d="M2.50008 10C2.70419 10 2.9012 10.075 3.05372 10.2106C3.20625 10.3462 3.3037 10.5331 3.32758 10.7359L3.33341 10.8334V13.3334C3.33344 13.5375 3.40838 13.7345 3.54401 13.887C3.67964 14.0395 3.86654 14.137 4.06925 14.1609L4.16675 14.1667H7.15425L6.07758 13.0892C5.9341 12.9457 5.84791 12.7548 5.83517 12.5523C5.82244 12.3497 5.88404 12.1495 6.00841 11.9892L6.07758 11.9109C6.22108 11.7674 6.41199 11.6812 6.61451 11.6684C6.81704 11.6557 7.01724 11.7173 7.17758 11.8417L7.25591 11.9109L9.75591 14.4109C9.85104 14.5038 9.92203 14.6186 9.96269 14.7453C10.0034 14.8719 10.0125 15.0066 9.98925 15.1375L9.95925 15.2592L9.92592 15.3459C9.87761 15.4516 9.80812 15.5464 9.72175 15.6242L7.25591 18.0892C7.10595 18.2386 6.90472 18.3254 6.6931 18.3319C6.48147 18.3383 6.27532 18.264 6.11652 18.124C5.95771 17.984 5.85816 17.7887 5.83808 17.578C5.818 17.3672 5.87891 17.1567 6.00841 16.9892L6.07758 16.9109L7.15341 15.8334H4.16675C3.52907 15.8334 2.91549 15.5898 2.45153 15.1523C1.98758 14.7148 1.70833 14.1166 1.67091 13.48L1.66675 13.3334V10.8334C1.66675 10.6123 1.75455 10.4004 1.91083 10.2441C2.06711 10.0878 2.27907 10 2.50008 10Z" stroke="black"/>
  </g>
</svg>