<svg width="94" height="48" viewBox="0 0 94 48" fill="none" xmlns="http://www.w3.org/2000/svg">
<path d="M0 16C0 7.16344 7.16344 0 16 0H88C91.3137 0 94 2.68629 94 6V42C94 45.3137 91.3137 48 88 48H16C7.16344 48 0 40.8366 0 32V16Z" fill="url(#paint0_linear_463_4345)"/>
<path d="M15.6057 44H33.1693C34.4645 44 35.5524 43.0003 35.5524 41.6498L35.6039 22.3502C35.6039 21.05 34.568 20.0503 33.2207 20.0503H24.5682C23.2731 20.0503 22.1337 21.0003 22.1337 22.3502V30.4502C22.1337 31.7001 21.0457 32.6998 19.7505 32.6998C18.4553 32.6998 17.4188 31.7001 17.4188 30.4502V17.5498C17.4188 16.2503 18.4553 15.2499 19.7505 15.2499H33.1693C34.5159 15.2499 35.5524 14.2503 35.5524 12.95V6.2999C35.5524 5.00034 34.5159 4 33.1693 4H15.6057C8.86989 4 4 8.70044 4 15.2003V32.7501C4 39.2499 8.86989 44 15.6057 44Z" fill="white"/>
<path d="M42.6978 44H51.3502C52.6976 44 53.7334 43.0003 53.7334 41.7001V18.3999C53.7334 17.1499 54.7699 16.1503 56.0651 16.1503C57.4117 16.1503 58.4483 17.1499 58.4483 18.3999V41.7001C58.4483 43.0003 59.4841 44 60.8314 44H69.4839C70.8305 44 71.8671 42.95 71.8671 41.7001V18.3999C71.8671 17.1499 72.9029 16.1503 74.1981 16.1503C75.5454 16.1503 76.5812 17.1499 76.5812 18.3999V41.7001C76.5812 43.0003 77.6178 44 78.9651 44H87.6169C88.9642 44 90 43.0003 90 41.7001V6.2999C90 5.00034 88.9642 4 87.6169 4H69.8982C68.5509 4 67.5151 5.00034 67.5151 6.2999V10.1999C67.5151 11.4498 66.4785 12.4502 65.1312 12.4502C63.8361 12.4502 62.8002 11.4498 62.8002 10.1999V6.2999C62.8002 5.00034 61.7637 4 60.4171 4H42.6978C41.3512 4 40.3146 5.00034 40.3146 6.2999V41.7001C40.3146 43.0003 41.3512 44 42.6978 44Z" fill="white"/>
<defs>
<linearGradient id="paint0_linear_463_4345" x1="31.02" y1="-12.7059" x2="69.1392" y2="34.7457" gradientUnits="userSpaceOnUse">
<stop stop-color="#2EA5FB"/>
<stop offset="1" stop-color="#4340E1"/>
</linearGradient>
</defs>
</svg>
