<svg xmlns="http://www.w3.org/2000/svg" width="20" height="20" viewBox="0 0 20 20" fill="none">
  <g opacity="0.64">
    <path d="M10.0083 1.67584C10.6564 1.67588 11.2824 1.91198 11.7691 2.34001L11.8974 2.46084L12.4791 3.04251C12.6387 3.2011 12.8472 3.30122 13.0708 3.32668L13.1833 3.33334H14.0166C14.6976 3.3333 15.3528 3.59382 15.8479 4.06146C16.343 4.5291 16.6404 5.16843 16.6791 5.84834L16.6833 6.00001V6.83334C16.6833 7.05834 16.7599 7.27751 16.8983 7.45251L16.9733 7.53584L17.5541 8.11751C18.0355 8.59622 18.3162 9.24053 18.339 9.91907C18.3618 10.5976 18.1249 11.2593 17.6766 11.7692L17.5558 11.8975L16.9741 12.4792C16.8155 12.6388 16.7154 12.8473 16.6899 13.0708L16.6833 13.1833V14.0167C16.6833 14.6977 16.4228 15.3529 15.9552 15.848C15.4875 16.3431 14.8482 16.6404 14.1683 16.6792L14.0166 16.6833H13.1833C12.9586 16.6834 12.7405 16.7592 12.5641 16.8983L12.4808 16.9733L11.8991 17.5542C11.4204 18.0356 10.7761 18.3163 10.0975 18.3391C9.419 18.3619 8.75733 18.1249 8.24744 17.6767L8.1191 17.5558L7.53744 16.9742C7.3778 16.8156 7.16935 16.7155 6.94577 16.69L6.83327 16.6833H5.99994C5.31892 16.6834 4.6637 16.4229 4.16863 15.9552C3.67356 15.4876 3.37617 14.8483 3.33744 14.1683L3.33327 14.0167V13.1833C3.3332 12.9587 3.25746 12.7406 3.11827 12.5642L3.04327 12.4808L2.46244 11.8992C1.981 11.4205 1.70029 10.7762 1.67753 10.0976C1.65476 9.41908 1.89167 8.7574 2.33994 8.24751L2.46077 8.11918L3.04244 7.53751C3.20103 7.37788 3.30115 7.16942 3.3266 6.94584L3.33327 6.83334V6.00001L3.33744 5.84834C3.37465 5.19455 3.65112 4.5773 4.11418 4.11425C4.57723 3.6512 5.19447 3.37472 5.84827 3.33751L5.99994 3.33334H6.83327C7.05795 3.33327 7.27606 3.25753 7.45244 3.11834L7.53577 3.04334L8.11744 2.46251C8.36522 2.21325 8.65983 2.01543 8.98432 1.88043C9.30882 1.74542 9.65681 1.67589 10.0083 1.67584ZM13.0891 7.74418C12.9328 7.58795 12.7209 7.50019 12.4999 7.50019C12.279 7.50019 12.067 7.58795 11.9108 7.74418L9.1666 10.4875L8.0891 9.41084L8.01077 9.34168C7.84328 9.21217 7.63277 9.15127 7.422 9.17134C7.21123 9.19142 7.016 9.29097 6.87598 9.44978C6.73595 9.60858 6.66162 9.81473 6.66808 10.0264C6.67454 10.238 6.76131 10.4392 6.91077 10.5892L8.57744 12.2558L8.65577 12.325C8.81611 12.4494 9.01631 12.511 9.21884 12.4983C9.42136 12.4855 9.61227 12.3993 9.75577 12.2558L13.0891 8.92251L13.1583 8.84418C13.2826 8.68384 13.3442 8.48363 13.3315 8.28111C13.3188 8.07859 13.2326 7.88767 13.0891 7.74418Z" fill="white"/>
  </g>
</svg>