<svg width="23" height="33" viewBox="0 0 23 33" fill="none" xmlns="http://www.w3.org/2000/svg">
<g clip-path="url(#clip0_162_718)">
<path d="M19 25.6666H14.5025C13.8326 25.6666 13.1725 25.505 12.5783 25.1956C11.9841 24.8862 11.4733 24.438 11.0892 23.8891L10.6608 23.2775C10.2767 22.7286 9.76587 17.2805 9.17168 16.971C8.57748 16.6616 7.91743 16.5 7.2475 16.5M19 25.6666L16.5 28.1666M19 25.6666L16.5 23.1666M7.2475 16.5H4H7.25C7.92022 16.4999 8.58053 16.3381 9.17489 16.0284C9.76925 15.7186 10.2801 10.2701 10.6642 9.72081L11.0892 9.11248C11.4733 8.56308 11.9843 8.11447 12.5788 7.80474C13.1733 7.495 13.8338 7.33328 14.5042 7.33331H19M7.2475 16.5H19M19 7.33331L16.5 9.83331M19 7.33331L16.5 4.83331M19 16.5L16.5 14M19 16.5L16.5 19" stroke="#B087F3" stroke-width="1.5" stroke-linecap="round" stroke-linejoin="round"/>
</g>
<defs>
<clipPath id="clip0_162_718">
<rect x="23" y="0.833313" width="31.3333" height="23" rx="11.5" transform="rotate(90 23 0.833313)" fill="white"/>
</clipPath>
</defs>
</svg>
