<svg xmlns="http://www.w3.org/2000/svg" width="23" height="26" viewBox="0 0 23 26" fill="none">
    <g filter="url(#filter0_i_214_2571)">
        <path d="M13.5433 1.18626C12.5383 0.616623 11.308 0.616623 10.3029 1.18626L6.38465 3.40715L2.50217 5.69004C1.50634 6.27558 0.891176 7.34108 0.881993 8.49627L0.846191 13L0.881993 17.5038C0.891176 18.659 1.50634 19.7245 2.50217 20.31L6.38465 22.5929L10.3029 24.8138C11.308 25.3835 12.5383 25.3835 13.5433 24.8138L17.4616 22.5929L21.3441 20.31C22.3399 19.7245 22.9551 18.659 22.9642 17.5038L23 13L22.9642 8.49627C22.9551 7.34108 22.3399 6.27558 21.3441 5.69004L17.4616 3.40715L13.5433 1.18626Z" fill="url(#paint0_linear_214_2571)"/>
    </g>
    <path d="M10.5305 1.58779C11.3944 1.09817 12.4519 1.09817 13.3157 1.58779L17.2308 3.80685L21.1101 6.08789C21.9661 6.59119 22.4948 7.50702 22.5027 8.49994L22.5385 13L22.5027 17.5001C22.4948 18.4931 21.9661 19.4089 21.1101 19.9122L17.2307 22.1933L13.3157 24.4123C12.4519 24.9019 11.3944 24.9019 10.5305 24.4123L6.61547 22.1932L2.73611 19.9122C1.88016 19.4089 1.35141 18.4931 1.34352 17.5001L1.30774 13L1.34352 8.49994C1.35141 7.50702 1.88016 6.59119 2.73611 6.08789L6.61542 3.80686L10.5305 1.58779Z" stroke="#328BEF" stroke-width="0.923077"/>
    <path d="M7.62304 9.54895L8.75542 11.5576H8.80934L9.9552 9.54895H12.0447L9.98216 13L12.1256 16.4511H9.98216L8.80934 14.402H8.75542L7.58259 16.4511H5.45264L7.56911 13L5.52004 9.54895H7.62304Z" fill="white"/>
    <path d="M12.8527 16.4511V9.54895H15.832C16.3442 9.54895 16.7925 9.65006 17.1767 9.85227C17.5609 10.0545 17.8597 10.3387 18.0731 10.7049C18.2866 11.0712 18.3933 11.4992 18.3933 11.989C18.3933 12.4833 18.2832 12.9113 18.063 13.273C17.8451 13.6347 17.5384 13.9133 17.143 14.1088C16.7498 14.3043 16.2903 14.402 15.7646 14.402H13.9851V12.9461H15.3871C15.6073 12.9461 15.7949 12.9079 15.9499 12.8315C16.1072 12.7529 16.2274 12.6417 16.3105 12.4979C16.3959 12.3541 16.4386 12.1844 16.4386 11.989C16.4386 11.7912 16.3959 11.6227 16.3105 11.4834C16.2274 11.3419 16.1072 11.234 15.9499 11.1599C15.7949 11.0835 15.6073 11.0453 15.3871 11.0453H14.7265V16.4511H12.8527Z" fill="white"/>
    <defs>
        <filter id="filter0_i_214_2571" x="0.846191" y="0.759033" width="22.1538" height="26.3282" filterUnits="userSpaceOnUse" color-interpolation-filters="sRGB">
            <feFlood flood-opacity="0" result="BackgroundImageFix"/>
            <feBlend mode="normal" in="SourceGraphic" in2="BackgroundImageFix" result="shape"/>
            <feColorMatrix in="SourceAlpha" type="matrix" values="0 0 0 0 0 0 0 0 0 0 0 0 0 0 0 0 0 0 127 0" result="hardAlpha"/>
            <feOffset dy="1.84615"/>
            <feGaussianBlur stdDeviation="1.84615"/>
            <feComposite in2="hardAlpha" operator="arithmetic" k2="-1" k3="1"/>
            <feColorMatrix type="matrix" values="0 0 0 0 0 0 0 0 0 0 0 0 0 0 0 0 0 0 0.64 0"/>
            <feBlend mode="normal" in2="shape" result="effect1_innerShadow_214_2571"/>
        </filter>
        <linearGradient id="paint0_linear_214_2571" x1="8.15696" y1="-5.7215" x2="25.3678" y2="4.17821" gradientUnits="userSpaceOnUse">
            <stop stop-color="#2EA5FB"/>
            <stop offset="1" stop-color="#4340E1"/>
        </linearGradient>
    </defs>
</svg>