<svg xmlns="http://www.w3.org/2000/svg" width="24" height="24" viewBox="0 0 24 24" fill="none">
    <g clip-path="url(#clip0_287_7199)">
        <path d="M9.47368 21.4737C13.3112 21.4737 16.4211 18.3638 16.4211 14.5263C16.4211 10.6888 13.3112 7.57893 9.47368 7.57893C5.63621 7.57893 2.52632 10.6888 2.52632 14.5263C2.52632 18.3638 5.63621 21.4737 9.47368 21.4737ZM9.47368 24C4.24168 24 0 19.7583 0 14.5263C0 9.2943 4.24168 5.05261 9.47368 5.05261C14.7057 5.05261 18.9474 9.2943 18.9474 14.5263C18.9474 19.7583 14.7057 24 9.47368 24Z" fill="#FBCC5C"/>
        <path d="M14.5264 16.4211C18.3639 16.4211 21.4738 13.3112 21.4738 9.47368C21.4738 5.63621 18.3639 2.52632 14.5264 2.52632C10.6889 2.52632 7.57905 5.63621 7.57905 9.47368C7.57905 13.3112 10.6889 16.4211 14.5264 16.4211ZM14.5264 18.9474C9.29442 18.9474 5.05273 14.7057 5.05273 9.47368C5.05273 4.24168 9.29442 0 14.5264 0C19.7584 0 24.0001 4.24168 24.0001 9.47368C24.0001 14.7057 19.7584 18.9474 14.5264 18.9474Z" fill="#35D07F"/>
        <path d="M14.8397 18.9473C15.4965 18.1516 15.9664 17.2193 16.2165 16.2164C17.2169 15.9663 18.1492 15.4964 18.9475 14.8396C18.9121 15.9991 18.662 17.141 18.2098 18.2122C17.1412 18.6619 15.9993 18.912 14.8397 18.9473ZM7.78368 7.78356C6.78326 8.03366 5.85105 8.50356 5.05273 9.1604C5.0881 8.00082 5.33821 6.85893 5.79042 5.7903C6.85905 5.34061 8.00347 5.09051 9.16052 5.05261C8.50368 5.8484 8.03379 6.78061 7.78368 7.78356Z" fill="#5EA33B"/>
    </g>
    <defs>
        <clipPath id="clip0_287_7199">
            <rect width="24" height="24" fill="white"/>
        </clipPath>
    </defs>
</svg>