<svg xmlns="http://www.w3.org/2000/svg" width="24" height="24" viewBox="0 0 24 24" fill="none">
    <g clip-path="url(#clip0_475_8502)">
        <path d="M11.9722 23.9847V17.9708L4.53248 13.6205L11.9722 23.9847Z" fill="#F0CDC2"/>
        <path d="M11.9971 23.9847V17.9708L19.4359 13.6205L11.9971 23.9847Z" fill="#C9B3F5"/>
        <path d="M11.9722 16.4769V8.80129L4.4481 12.1707L11.9722 16.4769Z" fill="#88AAF1"/>
        <path d="M11.9971 16.4769V8.80129L19.5212 12.1707L11.9971 16.4769Z" fill="#C9B3F5"/>
        <path d="M4.4481 12.1707L11.9722 0.0153503V8.80129L4.4481 12.1707Z" fill="#F0CDC2"/>
        <path d="M19.5212 12.1707L11.9971 0.0153503V8.80129L19.5212 12.1707Z" fill="#B8FAF6"/>
        <path fill-rule="evenodd" clip-rule="evenodd" d="M11.9967 0.000336968C11.9966 0.00033527 11.9964 0.000335267 11.9963 0.000336968H11.9718C11.9716 0.000335267 11.9715 0.00033527 11.9714 0.000336968H-0.015625V24.0006H23.9847V0.000336968H11.9967ZM11.9446 0.030347H0.0143851V23.9706H11.943L4.51967 13.6292C4.51554 13.6235 4.516 13.6156 4.52077 13.6104C4.52554 13.6051 4.53332 13.6039 4.53944 13.6075L11.9791 17.9578C11.9811 17.959 11.9828 17.9606 11.984 17.9624C11.9853 17.9606 11.9869 17.959 11.9889 17.9578L19.4277 13.6075C19.4338 13.6039 19.4416 13.6051 19.4464 13.6104C19.4511 13.6156 19.4516 13.6235 19.4474 13.6292L12.0251 23.9706H23.9547V0.030347H12.0234L19.5334 12.1628C19.5355 12.1662 19.5361 12.1704 19.5351 12.1744C19.5341 12.1783 19.5316 12.1817 19.528 12.1837L12.004 16.4899C11.9993 16.4925 11.9936 16.4925 11.989 16.4898C11.987 16.4887 11.9853 16.4871 11.984 16.4852C11.9828 16.4871 11.9811 16.4887 11.9791 16.4898C11.9745 16.4925 11.9688 16.4925 11.9641 16.4899L4.44003 12.1837C4.4365 12.1817 4.43394 12.1783 4.43294 12.1744C4.43194 12.1704 4.43258 12.1662 4.43472 12.1628L11.9446 0.030347ZM11.9566 0.0680921L4.48598 12.137L11.9566 8.79156V0.0680921ZM11.9566 8.82444L4.48055 12.1723L11.9566 16.451V8.82444ZM12.0115 0.0680921V8.79156L19.4821 12.137L12.0115 0.0680921ZM19.4875 12.1723L12.0115 8.82444V16.451L19.4875 12.1723ZM12.0115 23.938L19.3819 13.669L12.0115 17.9794V23.938ZM11.9566 23.938V17.9794L4.5852 13.669L11.9566 23.938Z" fill="#1616B4"/>
    </g>
    <defs>
        <clipPath id="clip0_475_8502">
            <rect width="23.9712" height="24" fill="white"/>
        </clipPath>
    </defs>
</svg>