<svg xmlns="http://www.w3.org/2000/svg" width="24" height="24" viewBox="0 0 24 24" fill="none">
    <g clip-path="url(#clip0_553_6804)">
        <path d="M7.05615 13.6608C7.74735 13.6608 8.41935 13.4304 8.96655 13.008L4.58895 8.63043C3.53295 9.99363 3.78255 11.952 5.14575 13.008C5.69295 13.4208 6.36495 13.6512 7.05615 13.6512V13.6608Z" fill="#3E6957"/>
        <path d="M20.0641 10.5408C20.0641 9.84963 19.8337 9.17763 19.4113 8.63043L15.0337 13.008C16.3969 14.064 18.3553 13.8144 19.4113 12.4512C19.8337 11.904 20.0641 11.232 20.0641 10.5408Z" fill="#3E6957"/>
        <path d="M22.272 5.77924L20.3328 7.71844C21.888 9.59044 21.648 12.3648 19.776 13.9296C18.1344 15.3024 15.7632 15.3024 14.1216 13.9296L12 16.0512L9.8784 13.9296C8.0064 15.4848 5.232 15.2448 3.6672 13.3728C2.2944 11.7312 2.2944 9.36004 3.6672 7.71844L2.6784 6.72964L1.7376 5.77924C0.5952 7.65124 0 9.80164 0 12C0 18.624 5.376 24 12 24C18.624 24 24 18.624 24 12C24.0096 9.81124 23.3952 7.65124 22.272 5.77924Z" fill="#3E6957"/>
        <path d="M20.6782 3.71522C16.1086 -1.07518 8.51496 -1.25758 3.72456 3.31202C3.58056 3.44642 3.44616 3.58082 3.32136 3.71522C3.02376 4.03202 2.74536 4.35842 2.47656 4.69442L11.9998 14.2176L21.523 4.69442C21.2638 4.34882 20.9758 4.02242 20.6782 3.71522ZM11.9998 1.56482C14.803 1.56482 17.4142 2.64962 19.3822 4.61762L11.9998 12L4.61736 4.61762C6.57576 2.64002 9.19656 1.56482 11.9998 1.56482Z" fill="#3E6957"/>
    </g>
    <defs>
        <clipPath id="clip0_553_6804">
            <rect width="24" height="24" fill="white"/>
        </clipPath>
    </defs>
</svg>