<svg xmlns="http://www.w3.org/2000/svg" width="24" height="24" viewBox="0 0 24 24" fill="none">
    <g clip-path="url(#clip0_868_6229)">
        <path d="M24 0H0V24H24V0Z" fill="black"/>
        <path d="M11.8854 22.31V18.7833C11.5338 18.7833 11.1746 18.7524 10.823 18.6984L10.2726 22.1788C10.8077 22.2714 11.3504 22.31 11.8854 22.31ZM13.4905 22.1865C14.0255 22.1016 14.5529 21.9781 15.065 21.8083L13.9873 18.4514C13.651 18.5595 13.2994 18.6444 12.9478 18.6984L13.4905 22.1865ZM8.70577 21.8083L9.78347 18.4591C9.44717 18.3511 9.11851 18.2122 8.79749 18.0501L7.20768 21.191C7.68921 21.4302 8.19367 21.6386 8.70577 21.8083ZM16.5554 21.191C17.037 20.944 17.4956 20.6585 17.9312 20.3421L15.8676 17.4945C15.5847 17.7029 15.279 17.8958 14.958 18.0501L16.5554 21.191ZM5.83188 20.3344L7.89558 17.4868C7.61277 17.2784 7.33761 17.0469 7.08538 16.7923L4.60895 19.2849C4.99112 19.663 5.40386 20.018 5.83188 20.3344ZM19.1465 19.3003L19.1695 19.2772C19.5516 18.899 19.9032 18.4823 20.2166 18.0501L17.3886 15.9743C17.1822 16.2598 16.9453 16.5376 16.7007 16.7846L16.6625 16.8231L17.8548 17.9575L19.1465 19.3003ZM3.56182 18.0424L6.38984 15.9665C6.18347 15.681 5.99239 15.3723 5.83188 15.0559L2.71341 16.6534C2.958 17.1395 3.2408 17.6026 3.56182 18.0424ZM21.0574 16.6611C21.3019 16.1826 21.5083 15.6733 21.6765 15.1563L18.344 14.0759C18.237 14.4154 18.0994 14.7473 17.9389 15.0637L21.0574 16.6611ZM2.0943 15.1563L5.42679 14.0682C5.31978 13.7286 5.2357 13.3813 5.1822 13.0264L1.71978 13.5743C1.80386 14.1067 1.93379 14.6392 2.0943 15.1563ZM22.051 13.582C22.1351 13.0495 22.1809 12.5016 22.1809 11.9614H18.6803C18.6803 12.3164 18.6497 12.6791 18.5962 13.0341L22.051 13.582ZM5.09812 11.9537C5.09812 11.5987 5.1287 11.236 5.1822 10.881L1.71978 10.3331C1.6357 10.8656 1.59749 11.4135 1.58984 11.9537H5.09812ZM18.5962 10.8887L22.0586 10.3408C21.9746 9.80834 21.8523 9.27587 21.6841 8.75883L18.3516 9.83921C18.4586 10.1865 18.5427 10.5337 18.5962 10.8887ZM5.42679 9.83921C5.53379 9.49966 5.67137 9.16783 5.83188 8.85143L2.71341 7.254C2.46882 7.73246 2.26246 8.24179 2.0943 8.75883L5.42679 9.83921ZM17.9465 8.85915L21.0726 7.26172C20.8281 6.77555 20.5453 6.31252 20.2242 5.87265L17.3886 7.94854C17.5949 8.23407 17.786 8.54275 17.9465 8.85915ZM6.38984 7.94082C6.59621 7.65529 6.83316 7.37748 7.08538 7.12281L7.09303 7.1151L4.6166 4.62249L4.60895 4.63021C4.22679 5.01606 3.87519 5.42506 3.56182 5.86494L6.38984 7.94082ZM16.7007 7.13825L17.4497 6.37426L19.1695 4.64564L19.1618 4.63793C18.7797 4.25979 18.3746 3.90481 17.9465 3.58841L15.8828 6.436C16.1656 6.64436 16.4408 6.87587 16.6854 7.13053L16.7007 7.13825ZM7.90322 6.42056C8.18602 6.2122 8.49175 6.02699 8.81277 5.86494L7.22296 2.7241C6.74144 2.97105 6.28284 3.25658 5.84717 3.57297L7.90322 6.42056ZM14.9809 5.87265L16.5784 2.73182C16.0968 2.48487 15.6 2.27651 15.0879 2.10674L14.0026 5.45593C14.3312 5.57169 14.6599 5.7106 14.9809 5.87265ZM9.79876 5.45593C10.1351 5.34789 10.4867 5.26301 10.8383 5.20899L10.2956 1.7286C9.76819 1.81349 9.23316 1.93696 8.72105 2.10674L9.79876 5.45593ZM12.9554 5.20899L13.5058 1.7286C12.9784 1.64371 12.4357 1.59741 11.9007 1.59741V5.1241C12.2523 5.1241 12.6115 5.15497 12.9554 5.20899Z" fill="white"/>
        <path d="M11.8858 18.9454V15.4032C11.5877 15.4032 11.2972 15.3646 11.0068 15.2875L10.0896 18.7061C10.6781 18.8605 11.282 18.9454 11.8858 18.9454ZM13.682 18.7061C14.2705 18.5518 14.8285 18.3203 15.3558 18.0116L13.5826 14.9479C13.3304 15.0945 13.0552 15.2103 12.7724 15.2875L13.682 18.7061ZM8.42336 18.0116L10.1966 14.9479C9.94438 14.8013 9.70743 14.6161 9.49342 14.4077L9.46285 14.3769L8.34692 15.5576L6.97113 16.8926L6.99406 16.9158C7.42208 17.3402 7.90361 17.7106 8.42336 18.0116ZM16.7851 16.9158C17.2132 16.4836 17.5877 16.0052 17.8858 15.4804L14.8208 13.7055C14.6756 13.9601 14.4921 14.1917 14.2781 14.4077L16.7851 16.9158ZM5.88578 15.4727L8.95075 13.7055C8.80552 13.4508 8.69087 13.1807 8.61444 12.8952L5.19788 13.8058C5.35075 14.3846 5.58769 14.9479 5.88578 15.4727ZM18.5813 13.8135C18.7342 13.227 18.8183 12.6251 18.8183 12.0232H15.2794C15.2794 12.3164 15.2412 12.6174 15.1648 12.9029L18.5813 13.8135ZM8.50743 12.0154C8.50743 11.7222 8.54565 11.4212 8.62208 11.1357L5.19788 10.2251C5.04501 10.8116 4.96094 11.4135 4.96094 12.0154H8.50743ZM15.1571 11.1434L18.5813 10.2328C18.4285 9.64632 18.1915 9.08297 17.8934 8.55821L14.8285 10.3254C14.966 10.5878 15.0807 10.8579 15.1571 11.1434ZM8.95839 10.3254C9.10361 10.0785 9.27941 9.83924 9.49342 9.63088L9.50107 9.62317L8.23227 8.35757L7.01699 7.09969L6.99406 7.12284C6.56603 7.54728 6.19915 8.03345 5.89342 8.5505L8.95839 10.3254ZM14.2781 9.63088L15.5316 8.373L16.8157 7.15371L16.7851 7.12284C16.3571 6.69069 15.8756 6.32799 15.3558 6.01931L13.5826 9.08297C13.8348 9.2296 14.0641 9.40709 14.2781 9.61545V9.63088ZM10.1966 9.08297C10.4488 8.93635 10.724 8.82059 11.0068 8.74342L10.1049 5.32477C9.51635 5.47911 8.95839 5.71063 8.431 6.01931L10.1966 9.08297ZM12.7648 8.75114L13.682 5.33249C13.1011 5.17815 12.4972 5.09326 11.8934 5.09326V8.63538C12.1839 8.63538 12.482 8.67397 12.7648 8.75114Z" fill="white"/>
    </g>
    <defs>
        <clipPath id="clip0_868_6229">
            <rect width="24" height="24" fill="white"/>
        </clipPath>
    </defs>
</svg>