<svg xmlns="http://www.w3.org/2000/svg" width="24" height="24" viewBox="0 0 24 24" fill="none">
  <path d="M11.6054 1.48815C11.5472 1.48815 11.492 1.50274 11.4396 1.53191L2.65322 6.62371C2.55146 6.68207 2.48749 6.79295 2.48749 6.90967V17.0903C2.48749 17.2071 2.55146 17.3179 2.65322 17.3763L11.4396 22.4681C11.4891 22.4973 11.5472 22.5119 11.6054 22.5119C11.6635 22.5119 11.7187 22.4973 11.7711 22.4681L20.5546 17.3792C20.6563 17.3209 20.7203 17.21 20.7203 17.0933V6.90967C20.7203 6.79295 20.6563 6.68207 20.5546 6.62371L11.7682 1.53191C11.7187 1.50274 11.6606 1.48815 11.6054 1.48815ZM11.6054 0C11.9194 0 12.2305 0.0817022 12.5125 0.242189L21.296 5.33398C21.8571 5.65787 22.2031 6.25897 22.2031 6.90967V17.0903C22.2031 17.741 21.8571 18.3392 21.296 18.666L12.5096 23.7578C12.2305 23.9212 11.9165 24 11.6024 24C11.2884 24 10.9773 23.9183 10.6953 23.7578L1.9089 18.666C1.34776 18.3421 1.00177 17.741 1.00177 17.0903V6.90967C1.00177 6.25897 1.34776 5.66079 1.9089 5.33398L10.6982 0.245106C10.9773 0.0817022 11.2913 0 11.6054 0Z" fill="#E57310"/>
  <path d="M13.8402 6.78418H14.9887C15.0759 6.78418 15.1515 6.83962 15.1806 6.9184L18.8731 17.0757C18.8963 17.1428 18.8469 17.2129 18.7771 17.2129H17.6287C17.5415 17.2129 17.4659 17.1574 17.4368 17.0786L13.7443 6.92132C13.721 6.85713 13.7705 6.78418 13.8402 6.78418Z" fill="#E57310"/>
  <path d="M12.3552 10.7234C12.3872 10.6329 12.5152 10.6329 12.5471 10.7234L13.1432 12.3662C13.1606 12.4128 13.1606 12.4624 13.1432 12.5062L11.4801 17.0815C11.451 17.1632 11.3725 17.2158 11.2882 17.2158H10.1397C10.07 17.2158 10.0205 17.1457 10.0438 17.0786L12.3552 10.7234Z" fill="#E57310"/>
  <path d="M11.8324 6.78418H12.9809C13.0681 6.78418 13.1437 6.83962 13.1728 6.9184L16.8653 17.0757C16.8885 17.1428 16.8391 17.2129 16.7693 17.2129H15.6209C15.5336 17.2129 15.4581 17.1574 15.429 17.0786L11.7365 6.92132C11.7103 6.85713 11.7597 6.78418 11.8324 6.78418Z" fill="#E57310"/>
  <path d="M11.3513 7.96298C11.3833 7.87253 11.5112 7.87253 11.5432 7.96298L12.1393 9.60578C12.1567 9.65247 12.1567 9.70207 12.1393 9.74584L9.4731 17.0815C9.44402 17.1632 9.36552 17.2157 9.28121 17.2157H8.13275C8.06297 17.2157 8.01354 17.1457 8.0368 17.0786L11.3513 7.96298Z" fill="#E57310"/>
  <path d="M4.42572 6.78418H5.57417C5.6614 6.78418 5.73699 6.83962 5.76607 6.9184L8.43223 14.2541C8.44967 14.3008 8.44967 14.3504 8.43223 14.3941L7.8362 16.0369C7.80421 16.1274 7.67628 16.1274 7.6443 16.0369L4.32977 6.92132C4.30361 6.85713 4.35303 6.78418 4.42572 6.78418Z" fill="#E57310"/>
  <path d="M8.83329 13.2766C8.80131 13.367 8.67338 13.367 8.64139 13.2766L6.33285 6.92132C6.30959 6.85421 6.35902 6.78418 6.4288 6.78418H7.57726C7.66448 6.78418 7.74007 6.83962 7.76915 6.9184L9.43223 11.4937C9.44967 11.5404 9.44967 11.59 9.43223 11.6338L8.83329 13.2766Z" fill="#E57310"/>
</svg>