<svg xmlns="http://www.w3.org/2000/svg" width="24" height="24" viewBox="0 0 24 24" fill="none">
    <g clip-path="url(#clip0_475_8119)">
        <path d="M24 12C24 5.376 18.624 0 12 0C5.376 0 0 5.376 0 12C0 18.624 5.376 24 12 24C18.624 24 24 18.624 24 12Z" fill="#FF0420"/>
        <path d="M8.50481 15.1872C7.78481 15.1872 7.19921 15.0144 6.74801 14.6784C6.29681 14.3328 6.06641 13.8432 6.06641 13.2192C6.06641 13.0848 6.08561 12.9216 6.11441 12.7296C6.19121 12.2976 6.30641 11.7792 6.45041 11.1648C6.86321 9.51359 7.91921 8.68799 9.61841 8.68799C10.0792 8.68799 10.5016 8.76479 10.8664 8.92799C11.2312 9.08159 11.5192 9.31199 11.7304 9.61919C11.9416 9.92639 12.0472 10.2816 12.0472 10.704C12.0472 10.8288 12.028 10.992 11.9992 11.184C11.9032 11.7216 11.7976 12.24 11.6728 12.7488C11.4616 13.5744 11.0968 14.1888 10.5784 14.6016C10.06 15.0048 9.36881 15.2064 8.50481 15.2064V15.1872ZM8.63921 13.8912C8.97521 13.8912 9.26321 13.7856 9.49361 13.5936C9.73361 13.392 9.90641 13.0944 10.012 12.6816C10.156 12.1152 10.2616 11.6256 10.3288 11.2032C10.3576 11.0784 10.3672 10.944 10.3672 10.8096C10.3672 10.2624 10.0792 9.98399 9.51281 9.98399C9.17681 9.98399 8.88881 10.0896 8.64881 10.2816C8.40881 10.4832 8.24561 10.7808 8.14001 11.1936C8.02481 11.5968 7.91921 12.0864 7.81361 12.672C7.78481 12.7968 7.77521 12.9216 7.77521 13.056C7.76561 13.6128 8.06321 13.8912 8.63921 13.8912Z" fill="white"/>
        <path d="M12.4516 15.1008C12.3844 15.1008 12.3364 15.0816 12.298 15.0336C12.2692 14.9856 12.2596 14.928 12.2692 14.8704L13.5172 9.0144C13.5268 8.9472 13.5652 8.8896 13.6228 8.8512C13.6804 8.8032 13.738 8.784 13.7956 8.784H16.1956C16.8676 8.784 17.3956 8.928 17.7988 9.1968C18.2116 9.4752 18.4132 9.8784 18.4132 10.3968C18.4132 10.5504 18.394 10.704 18.3556 10.8672C18.202 11.5584 17.9044 12.0672 17.4436 12.4032C16.9924 12.7392 16.3684 12.9024 15.5812 12.9024H14.362L13.9492 14.88C13.93 14.9472 13.9012 15.0048 13.8436 15.0432C13.786 15.0912 13.7284 15.1104 13.6708 15.1104H12.442L12.4516 15.1008ZM15.6388 11.6544C15.898 11.6544 16.1092 11.5872 16.3012 11.4432C16.4932 11.2992 16.618 11.1072 16.6852 10.848C16.7044 10.7424 16.714 10.656 16.714 10.5792C16.714 10.4064 16.6564 10.272 16.5604 10.176C16.4548 10.08 16.282 10.032 16.0324 10.032H14.9476L14.602 11.6448H15.6388V11.6544Z" fill="white"/>
    </g>
    <defs>
        <clipPath id="clip0_475_8119">
            <rect width="24" height="24" fill="white"/>
        </clipPath>
    </defs>
</svg>