<svg xmlns="http://www.w3.org/2000/svg" width="24" height="24" viewBox="0 0 24 24" fill="none">
    <path d="M17.4716 16.0838L22.826 12.9926C23.1092 12.8289 23.2853 12.5242 23.2853 12.1968V6.01344C23.2853 5.68656 23.1092 5.38128 22.826 5.21759L17.4716 2.12639C17.1884 1.96272 16.8361 1.96319 16.5529 2.12639L11.1984 5.21759C10.9153 5.38128 10.7391 5.68608 10.7391 6.01344V17.0626L6.98454 19.2297L3.22998 17.0626V12.7268L6.98454 10.5595L9.46133 11.9889V9.08064L7.4439 7.91616C7.3047 7.83599 7.14581 7.79376 6.98454 7.79376C6.82326 7.79376 6.66438 7.83599 6.52518 7.91616L1.1703 11.0078C0.887098 11.1715 0.710938 11.4763 0.710938 11.8037V17.9866C0.710938 18.3134 0.887098 18.6188 1.1703 18.7824L6.5247 21.874C6.8079 22.0373 7.15974 22.0373 7.44341 21.874L12.7978 18.7829C13.081 18.6192 13.2572 18.3139 13.2572 17.9871V6.93792L13.3249 6.89904L17.0118 4.77072L20.7663 6.93839V11.2737L17.0118 13.4414L14.5387 12.0139V14.9223L16.5524 16.0853C16.8356 16.2485 17.1879 16.2485 17.4711 16.0853L17.4716 16.0838Z" fill="url(#paint0_linear_475_8094)"/>
    <defs>
        <linearGradient id="paint0_linear_475_8094" x1="2.62998" y1="18.8309" x2="22.0316" y2="4.68384" gradientUnits="userSpaceOnUse">
            <stop stop-color="#A726C1"/>
            <stop offset="0.88" stop-color="#803BDF"/>
            <stop offset="1" stop-color="#7B3FE4"/>
        </linearGradient>
    </defs>
</svg>