<svg xmlns="http://www.w3.org/2000/svg" width="24" height="24" viewBox="0 0 24 24" fill="none">
    <g clip-path="url(#clip0_475_8155)">
        <mask id="mask0_475_8155" style="mask-type:luminance" maskUnits="userSpaceOnUse" x="0" y="0" width="24" height="24">
            <path d="M24 0H0V24H24V0Z" fill="white"/>
        </mask>
        <g mask="url(#mask0_475_8155)">
            <path d="M22.2912 16.1986V2.33015C22.2653 1.16907 21.3463 0.240204 20.1812 0.240204H5.65696C2.52428 0.291808 0 2.84619 0 5.9811C0 7.03898 0.284789 7.94204 0.724919 8.7419C1.08738 9.39985 1.6699 10.0191 2.23948 10.4964C2.39482 10.6254 2.31715 10.5738 2.80906 10.8834C3.49515 11.2963 4.27184 11.5027 4.27184 11.5027V19.7979C4.28479 20.185 4.33657 20.572 4.42718 20.9203C4.75081 22.0814 5.56634 22.9845 6.66667 23.4232C7.13269 23.6037 7.65049 23.7327 8.20712 23.7327L19.8058 23.7714C22.1229 23.7714 24 21.9008 24 19.5916C24 18.1853 23.3269 16.9598 22.2912 16.1986Z" fill="#FFEEDA"/>
            <path d="M22.5938 19.6837C22.5418 21.1734 21.3208 22.3652 19.827 22.3652L11.8125 22.3393C12.449 21.6009 12.8387 20.6423 12.8387 19.606C12.8387 17.9609 11.8515 16.8339 11.8515 16.8339H19.827C21.3597 16.8339 22.5938 18.0775 22.5938 19.606V19.6837Z" fill="#EBC28E"/>
            <path d="M2.98868 9.28294C2.07008 8.41609 1.42318 7.29048 1.42318 5.94492V5.80261C1.50082 3.52552 3.37683 1.68832 5.65392 1.61068H20.1704C20.5456 1.62362 20.8561 1.89532 20.8561 2.28346V14.5616C21.1925 14.6263 21.3477 14.6651 21.6712 14.7816C21.9171 14.8721 22.2793 15.0792 22.2793 15.0792V2.28346C22.2534 1.11904 21.3348 0.1875 20.1704 0.1875H5.65392C2.52292 0.239252 0 2.80098 0 5.94492C0 7.76918 0.828035 9.33469 2.19947 10.4345C2.29003 10.5121 2.38059 10.6027 2.62643 10.6027C3.05337 10.6027 3.35095 10.2662 3.33802 9.891C3.32508 9.5805 3.19569 9.46406 2.98868 9.28294Z" fill="#190602"/>
            <path d="M19.8093 15.3897H8.42377C7.66043 15.3897 7.0394 16.0237 7.0394 16.787V18.4172C7.06527 19.1676 7.71218 19.8275 8.46258 19.8275H9.30356V18.4172H8.46258V16.8128C8.46258 16.8128 8.66959 16.8128 8.92835 16.8128C10.3644 16.8128 11.4254 18.1455 11.4254 19.5816C11.4254 20.8495 10.2739 22.4668 8.34614 22.3374C6.62538 22.221 5.70678 20.6943 5.70678 19.5816V5.69909C5.70678 5.07807 5.2022 4.56055 4.56823 4.56055H3.42969V5.98373H4.27066V19.5816C4.23185 22.3504 6.23724 23.7476 8.33321 23.7476L19.8093 23.7864C22.1252 23.7864 24.0011 21.9105 24.0011 19.5946C24.0011 17.2786 22.1252 15.3897 19.8093 15.3897ZM22.5651 19.6722C22.5133 21.16 21.2971 22.3504 19.8093 22.3504L11.8265 22.3245C12.4604 21.587 12.8485 20.6296 12.8485 19.5946C12.8485 17.9514 11.8653 16.8258 11.8653 16.8258H19.8093C21.3359 16.8258 22.5651 18.0679 22.5651 19.5946V19.6722Z" fill="#190602"/>
            <path d="M16.8326 6.22955H8.16406V4.81931H16.8326C17.1819 4.81931 17.4536 5.10394 17.4536 5.44033V5.60853C17.4536 5.95785 17.1689 6.22955 16.8326 6.22955Z" fill="#190602"/>
            <path d="M16.8326 12.9186H8.16406V11.5083H16.8326C17.1819 11.5083 17.4536 11.7929 17.4536 12.1293V12.2975C17.4536 12.6339 17.1689 12.9186 16.8326 12.9186Z" fill="#190602"/>
            <path d="M18.3346 9.5805H8.15234V8.17026H18.3346C18.6839 8.17026 18.9556 8.45489 18.9556 8.79129V8.95948C18.9685 9.29587 18.6839 9.5805 18.3346 9.5805Z" fill="#190602"/>
        </g>
    </g>
    <defs>
        <clipPath id="clip0_475_8155">
            <rect width="24" height="24" fill="white"/>
        </clipPath>
    </defs>
</svg>