<svg xmlns="http://www.w3.org/2000/svg" width="24" height="24" viewBox="0 0 24 24" fill="none">
    <mask id="mask0_475_7555" style="mask-type:alpha" maskUnits="userSpaceOnUse" x="0" y="0" width="24" height="24">
        <path d="M12 24C18.6274 24 24 18.6274 24 12C24 5.37259 18.6274 0 12 0C5.37259 0 0 5.37259 0 12C0 18.6274 5.37259 24 12 24Z" fill="#D9D9D9"/>
    </mask>
    <g mask="url(#mask0_475_7555)">
        <path d="M28.0707 -5.21701H-3.69922V26.5529H28.0707V-5.21701Z" fill="#A1723A"/>
        <g filter="url(#filter0_f_475_7555)">
            <path d="M12.9184 23.4955C19.9907 23.4955 25.7237 17.764 25.7237 10.694C25.7237 3.62391 19.9907 -2.10751 12.9184 -2.10751C5.84636 -2.10751 0.113281 3.62391 0.113281 10.694C0.113281 17.764 5.84636 23.4955 12.9184 23.4955Z" fill="#531002"/>
        </g>
        <g filter="url(#filter1_f_475_7555)">
            <path d="M14.2999 19.4435C20.0359 19.4435 24.6859 14.7919 24.6859 9.05389C24.6859 3.31583 20.0359 -1.33575 14.2999 -1.33575C8.564 -1.33575 3.91406 3.31583 3.91406 9.05389C3.91406 14.7919 8.564 19.4435 14.2999 19.4435Z" fill="#2B5DF0"/>
        </g>
        <g filter="url(#filter2_f_475_7555)">
            <path d="M14.1087 20.0371C20.0886 20.0371 24.9362 15.1879 24.9362 9.206C24.9362 3.22409 20.0886 -1.62518 14.1087 -1.62518C8.12887 -1.62518 3.28125 3.22409 3.28125 9.206C3.28125 15.1879 8.12887 20.0371 14.1087 20.0371Z" fill="url(#paint0_radial_475_7555)"/>
        </g>
        <g filter="url(#filter3_f_475_7555)">
            <path d="M15.9077 11.9333C18.9202 11.9333 21.3622 9.49128 21.3622 6.47881C21.3622 3.46635 18.9202 1.02426 15.9077 1.02426C12.8952 1.02426 10.4531 3.46635 10.4531 6.47881C10.4531 9.49128 12.8952 11.9333 15.9077 11.9333Z" fill="#FCB8D4"/>
        </g>
        <g filter="url(#filter4_f_475_7555)">
            <path d="M15.9008 8.65319C17.1038 8.65319 18.0789 7.67804 18.0789 6.47508C18.0789 5.27214 17.1038 4.29697 15.9008 4.29697C14.6978 4.29697 13.7227 5.27214 13.7227 6.47508C13.7227 7.67804 14.6978 8.65319 15.9008 8.65319Z" fill="white"/>
        </g>
        <g filter="url(#filter5_f_475_7555)">
            <path d="M14.4561 28.2227C25.2662 28.2227 34.0294 19.4594 34.0294 8.64941C34.0294 -2.16061 25.2662 -10.9239 14.4561 -10.9239C3.64608 -10.9239 -5.11719 -2.16061 -5.11719 8.64941C-5.11719 19.4594 3.64608 28.2227 14.4561 28.2227Z" fill="url(#paint1_radial_475_7555)" fill-opacity="0.9"/>
        </g>
    </g>
    <defs>
        <filter id="filter0_f_475_7555" x="-2.85517" y="-5.07597" width="31.5463" height="31.5399" filterUnits="userSpaceOnUse" color-interpolation-filters="sRGB">
            <feFlood flood-opacity="0" result="BackgroundImageFix"/>
            <feBlend mode="normal" in="SourceGraphic" in2="BackgroundImageFix" result="shape"/>
            <feGaussianBlur stdDeviation="1.48423" result="effect1_foregroundBlur_475_7555"/>
        </filter>
        <filter id="filter1_f_475_7555" x="-2.02286" y="-7.27268" width="32.6473" height="32.6531" filterUnits="userSpaceOnUse" color-interpolation-filters="sRGB">
            <feFlood flood-opacity="0" result="BackgroundImageFix"/>
            <feBlend mode="normal" in="SourceGraphic" in2="BackgroundImageFix" result="shape"/>
            <feGaussianBlur stdDeviation="2.96846" result="effect1_foregroundBlur_475_7555"/>
        </filter>
        <filter id="filter2_f_475_7555" x="1.0549" y="-3.85154" width="26.109" height="26.115" filterUnits="userSpaceOnUse" color-interpolation-filters="sRGB">
            <feFlood flood-opacity="0" result="BackgroundImageFix"/>
            <feBlend mode="normal" in="SourceGraphic" in2="BackgroundImageFix" result="shape"/>
            <feGaussianBlur stdDeviation="1.11318" result="effect1_foregroundBlur_475_7555"/>
        </filter>
        <filter id="filter3_f_475_7555" x="6.00044" y="-3.42843" width="19.8155" height="19.8144" filterUnits="userSpaceOnUse" color-interpolation-filters="sRGB">
            <feFlood flood-opacity="0" result="BackgroundImageFix"/>
            <feBlend mode="normal" in="SourceGraphic" in2="BackgroundImageFix" result="shape"/>
            <feGaussianBlur stdDeviation="2.22634" result="effect1_foregroundBlur_475_7555"/>
        </filter>
        <filter id="filter4_f_475_7555" x="10.7542" y="1.32851" width="10.2924" height="10.2931" filterUnits="userSpaceOnUse" color-interpolation-filters="sRGB">
            <feFlood flood-opacity="0" result="BackgroundImageFix"/>
            <feBlend mode="normal" in="SourceGraphic" in2="BackgroundImageFix" result="shape"/>
            <feGaussianBlur stdDeviation="1.48423" result="effect1_foregroundBlur_475_7555"/>
        </filter>
        <filter id="filter5_f_475_7555" x="-7.34354" y="-13.1502" width="43.6011" height="43.5993" filterUnits="userSpaceOnUse" color-interpolation-filters="sRGB">
            <feFlood flood-opacity="0" result="BackgroundImageFix"/>
            <feBlend mode="normal" in="SourceGraphic" in2="BackgroundImageFix" result="shape"/>
            <feGaussianBlur stdDeviation="1.11318" result="effect1_foregroundBlur_475_7555"/>
        </filter>
        <radialGradient id="paint0_radial_475_7555" cx="0" cy="0" r="1" gradientUnits="userSpaceOnUse" gradientTransform="translate(15.935 6.15031) rotate(128.228) scale(20.4489 20.4473)">
            <stop offset="0.286458" stop-color="#387AFA"/>
            <stop offset="0.647782" stop-color="#387AFA" stop-opacity="0"/>
        </radialGradient>
        <radialGradient id="paint1_radial_475_7555" cx="0" cy="0" r="1" gradientUnits="userSpaceOnUse" gradientTransform="translate(14.4561 8.64941) rotate(90) scale(19.5733)">
            <stop offset="0.598958" stop-opacity="0"/>
            <stop offset="0.671875"/>
            <stop offset="0.734375" stop-opacity="0"/>
        </radialGradient>
    </defs>
</svg>